PathFileType	4	(X/Y/Z)	C:\Users\Basilio\Documents\Thesis Gigler\squatting_fais\c3dfiles\047\SLS_pre_front5\markers_experimental.trc
DataRate	CameraRate	NumFrames	NumMarkers	Units	OrigDataRate	OrigDataStartFrame	OrigNumFrames
200.000000	200.000000	4	60	mm	200.000000	147	1183
Frame#	Time	FHD			LBHD			RBHD			C7			T10			CLAV			LSHO			LUUPA			LMUPA			LDUPA			LLEP			LMEP			LRAD			LUL			LRFIN			RSHO			RUPA1			RMUPA			RDUPA			RLEP			RMEP			RRAD			RUL			RUFIN			LASI			RASI			USACR			LSACR			RSACR			LTHI1			LTHI2			LTHI3			LTHI4			LLFC			LMFC			LTIB1			LTIB2			LTIB3			LTIB4			LLMAL			LMMAL			LMT1			LMT2			LMT5			RTHI			RTHI2			RTHI3			RTHI4			RLFC			RMFC			RTIB1			RTIB2			RTIB3			RTIB4			RLMAL			RMMAL			RHEE			RMT1			RMT2			RMT5			
		X1	Y1	Z1	X2	Y2	Z2	X3	Y3	Z3	X4	Y4	Z4	X5	Y5	Z5	X6	Y6	Z6	X7	Y7	Z7	X8	Y8	Z8	X9	Y9	Z9	X10	Y10	Z10	X11	Y11	Z11	X12	Y12	Z12	X13	Y13	Z13	X14	Y14	Z14	X15	Y15	Z15	X16	Y16	Z16	X17	Y17	Z17	X18	Y18	Z18	X19	Y19	Z19	X20	Y20	Z20	X21	Y21	Z21	X22	Y22	Z22	X23	Y23	Z23	X24	Y24	Z24	X25	Y25	Z25	X26	Y26	Z26	X27	Y27	Z27	X28	Y28	Z28	X29	Y29	Z29	X30	Y30	Z30	X31	Y31	Z31	X32	Y32	Z32	X33	Y33	Z33	X34	Y34	Z34	X35	Y35	Z35	X36	Y36	Z36	X37	Y37	Z37	X38	Y38	Z38	X39	Y39	Z39	X40	Y40	Z40	X41	Y41	Z41	X42	Y42	Z42	X43	Y43	Z43	X44	Y44	Z44	X45	Y45	Z45	X46	Y46	Z46	X47	Y47	Z47	X48	Y48	Z48	X49	Y49	Z49	X50	Y50	Z50	X51	Y51	Z51	X52	Y52	Z52	X53	Y53	Z53	X54	Y54	Z54	X55	Y55	Z55	X56	Y56	Z56	X57	Y57	Z57	X58	Y58	Z58	X59	Y59	Z59	X60	Y60	Z60	

148	0.735	-243.0891113281251	1734.430297851563	-1046.048095703125	-419.2351684570314	1696.260620117188	-1082.1923828125	-403.6025695800782	1696.008422851563	-934.4417114257815	-443.4200134277345	1508.06103515625	-1015.412414550781	-429.3021850585939	1195.567749023438	-1008.469970703125	-287.0688171386719	1470.625366210938	-1038.424560546875	-369.7914733886719	1498.40869140625	-1182.89013671875	-280.5752258300782	1439.498291015625	-1319.714965820313	-258.5960998535157	1484.037475585938	-1315.6005859375	-220.0437774658204	1455.10302734375	-1350.203247070313	-164.4836883544922	1482.43408203125	-1373.984008789063	-124.6675415039063	1427.407592773438	-1331.630493164063	104.6757888793946	1526.807739257813	-1393.060546875	75.9211883544922	1538.860961914063	-1465.561767578125	172.0572967529297	1563.518310546875	-1425.093627929688	-338.8189392089844	1508.25146484375	-886.6995239257815	-207.5335845947266	1453.487182617188	-772.3939208984377	-182.9366760253907	1491.616333007813	-792.116394042969	-138.7004699707032	1459.047729492188	-766.8879394531251	-72.6162567138672	1479.726806640625	-771.1445312500002	-55.11083984375001	1414.366577148438	-817.3111572265627	192.1746215820313	1501.121704101563	-823.127624511719	181.8956756591797	1517.750366210938	-750.8285522460939	269.1117248535157	1527.911865234375	-808.8128051757815	-238.8043670654297	986.0854492187502	-1102.35546875	-238.7636871337891	1008.708801269531	-873.353210449219	-427.7556457519532	1060.570556640625	-998.6120605468752	-427.6836853027345	1027.068115234375	-1025.093872070313	-431.5289916992189	1031.5029296875	-966.285095214844	-306.3740844726563	819.2374267578127	-1165.6484375	-262.6358032226563	747.4167480468751	-1163.15576171875	-214.652572631836	757.6000366210939	-1153.59326171875	-284.5797119140626	690.6410522460939	-1155.08251953125	-286.0382080078126	519.3251953125001	-1114.573852539063	-255.7679290771485	515.8038940429689	-994.5452270507815	-264.7845764160157	337.1099243164063	-1009.580932617188	-272.1089172363282	287.1889648437501	-1082.795532226563	-257.8016357421876	286.1275024414063	-1036.432739257813	-278.2991027832032	212.6676330566407	-1005.070007324219	-332.0349426269532	117.9261169433594	-1047.94287109375	-313.0020141601563	133.5443725585938	-960.2502441406252	-190.3549194335938	62.41287231445314	-976.416198730469	-188.8479156494141	60.63029861450197	-1021.360473632813	-236.3599853515626	46.6660270690918	-1067.35595703125	-238.244369506836	840.571228027344	-776.2644653320315	-174.3373565673828	822.7495117187502	-784.708679199219	-151.6807250976563	843.3450317382815	-794.5190429687502	-144.0820007324219	745.0062866210939	-787.0261840820315	-48.46424102783205	633.6861572265626	-808.7185058593752	-37.16830444335938	629.0222778320314	-933.303161621094	45.94396972656251	541.3056640625001	-832.2014160156252	39.79557800292969	442.6702880859376	-782.514587402344	74.57213592529298	462.948699951172	-806.1384277343752	102.1230087280274	423.9605407714845	-840.3311767578127	126.3870010375977	267.4438781738282	-800.1037597656252	131.6192626953125	281.7038574218751	-890.4560546875002	81.55490112304689	209.4885864257813	-842.6038208007815	280.2881164550782	263.7793273925782	-891.239440917969	286.2966918945313	275.3880920410157	-847.2823486328127	258.1058349609376	241.5261383056641	-784.072937011719	
149	0.74	-243.2232971191407	1734.501831054688	-1046.047241210938	-418.4868164062501	1695.750854492188	-1082.34130859375	-403.7208251953126	1695.980590820313	-934.3448486328127	-443.5410766601564	1507.98046875	-1015.355407714844	-429.1821899414064	1195.46240234375	-1008.584289550781	-287.4079284667969	1470.625366210938	-1038.428955078125	-369.8819885253907	1498.44482421875	-1182.881469726563	-280.6244506835938	1439.632568359375	-1319.720703125	-258.6644287109376	1484.135498046875	-1315.589233398438	-220.207015991211	1455.227905273438	-1350.096069335938	-164.485107421875	1482.574340820313	-1374.002075195313	-124.5114288330078	1427.65478515625	-1331.572265625	104.5970458984375	1527.188354492188	-1393.016723632813	76.51099395751955	1538.843994140625	-1465.65673828125	172.0322265625	1563.776000976563	-1425.058349609375	-338.9560546875001	1508.187133789063	-886.6553344726565	-207.8184204101563	1453.442993164063	-772.2713623046877	-182.983871459961	1491.51953125	-792.099304199219	-139.0260162353516	1458.982299804688	-766.7774047851564	-72.75699615478517	1479.679321289063	-771.1130371093752	-55.36871719360353	1414.183715820313	-816.9278564453127	192.0120697021485	1501.1171875	-823.0651855468752	181.694320678711	1517.688232421875	-750.7537841796876	269.0735168457032	1527.806030273438	-808.8442993164065	-238.6210479736329	986.1323852539065	-1102.398803710938	-238.7110443115235	1008.684997558594	-873.3994140625002	-427.6843261718751	1060.570922851563	-998.7297973632815	-427.5193176269532	1027.039672851563	-1025.286987304688	-431.4144897460939	1031.467041015625	-966.437194824219	-306.2323913574219	819.2920532226565	-1165.695922851563	-262.4046325683594	747.4015502929689	-1163.258544921875	-214.4118194580079	757.6784667968751	-1153.704223632813	-284.4163208007813	690.6651000976564	-1155.080078125	-285.8135681152344	519.2769775390626	-1114.679077148438	-255.6178588867188	515.7237548828126	-994.7066650390627	-264.6889038085938	337.1796264648438	-1009.583862304688	-271.9524230957032	287.2411499023438	-1082.991943359375	-257.8222045898438	286.1702575683594	-1036.58642578125	-278.2531127929688	213.0371856689454	-1004.863159179688	-332.0359497070313	117.9180679321289	-1047.985473632813	-313.0090332031251	133.6064910888672	-960.3298950195315	-189.675765991211	63.0069923400879	-976.5327758789065	-188.8429260253907	60.57640075683595	-1021.371887207031	-236.4263153076172	46.62569427490235	-1067.368286132813	-238.1420135498047	840.5801391601565	-776.507751464844	-174.0396881103516	822.694274902344	-784.1215820312502	-151.482894897461	843.4631958007815	-794.6580200195315	-144.0373840332032	744.9991455078126	-787.1051025390627	-48.22774887084962	633.8005371093751	-808.8435668945315	-36.78023147583009	629.1755371093751	-933.366394042969	46.04775619506837	541.3641357421876	-832.0987548828127	39.99605560302735	442.7952575683595	-782.393493652344	74.84828186035158	463.0272521972657	-806.1858520507815	102.111442565918	424.2308044433595	-840.399353027344	126.5619354248047	267.4648437500001	-800.037536621094	131.9703979492188	281.8614501953126	-890.374206542969	81.74089813232423	209.8199615478516	-842.6707763671877	280.7736511230469	263.9898681640626	-890.9495849609377	286.7617187500001	275.6250305175782	-847.339050292969	258.2725524902344	241.7244110107422	-784.091491699219	
150	0.745	-243.1306915283204	1734.732299804688	-1045.80078125	-419.4278259277345	1696.329467773438	-1082.052978515625	-403.6782226562501	1696.051879882813	-934.5545043945315	-443.5864868164064	1508.010131835938	-1015.345947265625	-429.1562805175782	1195.372680664063	-1008.663391113281	-287.6195983886719	1470.547119140625	-1037.990966796875	-369.8404235839844	1498.458374023438	-1182.88916015625	-280.7377014160157	1439.772216796875	-1319.69580078125	-258.8110961914063	1484.272583007813	-1315.523193359375	-220.1924896240235	1455.404296875	-1350.184448242188	-164.5405426025391	1482.643432617188	-1373.967163085938	-124.6959228515625	1427.790771484375	-1331.529052734375	104.3836746215821	1527.4033203125	-1393.014770507813	75.8366165161133	1539.410522460938	-1465.474975585938	171.9695892333985	1563.974487304688	-1424.984130859375	-339.0778808593751	1508.087646484375	-886.5239868164065	-207.9079742431641	1453.39697265625	-772.2160644531252	-183.1241302490235	1491.459716796875	-792.007507324219	-139.110092163086	1458.91015625	-766.7559814453126	-72.77599334716798	1479.643188476563	-771.1126708984377	-55.4684181213379	1414.16162109375	-816.9649658203127	191.8498077392578	1501.083129882813	-822.977233886719	181.3900146484375	1517.577392578125	-750.5238037109376	268.9374694824219	1527.779907226563	-808.7546997070315	-238.6320037841797	986.1790771484377	-1102.420166015625	-238.6984863281251	1008.685424804688	-873.4348754882815	-427.5538330078126	1060.544921875	-998.8760375976565	-427.4691467285157	1027.04248046875	-1025.428100585938	-431.3084411621095	1031.452514648438	-966.5923461914065	-305.9960632324219	819.3096923828127	-1165.764038085938	-262.2479248046876	747.4473876953126	-1163.309326171875	-214.399642944336	757.6412963867189	-1153.584716796875	-284.1743469238282	690.7066040039064	-1155.214477539063	-285.6137084960938	519.2772216796876	-1114.804809570313	-255.3989257812501	515.6788330078126	-994.802917480469	-264.5133361816407	337.1274719238282	-1009.864440917969	-271.7927551269532	287.2727355957032	-1083.046142578125	-257.7103881835938	286.2096557617188	-1036.856201171875	-278.2192993164063	213.0165557861329	-1004.765686035156	-332.0192565917969	117.8994140625	-1048.07275390625	-312.9659118652344	133.6302947998047	-960.4456787109377	-189.6983947753907	63.0069046020508	-976.5596313476565	-188.8821716308594	60.50450897216798	-1021.411743164063	-236.4141082763672	46.61360168457032	-1067.451904296875	-238.1309814453126	840.5720825195315	-776.402282714844	-174.2665557861328	822.8452148437502	-784.8853149414065	-151.426986694336	843.528991699219	-794.7076416015627	-143.9696350097657	745.0860595703126	-787.1464843750002	-48.02491378784181	633.9735107421876	-808.859802246094	-36.73812484741212	629.2150878906251	-933.2288208007815	46.2451400756836	541.3606567382814	-831.5145263671877	40.28945922851563	443.0168762207032	-782.6223754882815	75.11203002929689	463.1672668457032	-806.2351684570315	102.321762084961	424.4550170898439	-840.3845214843752	126.8729629516602	267.7359619140626	-799.9927978515627	132.4535369873047	282.0966796875001	-890.3772583007815	81.88355255126955	210.0201416015626	-842.5271606445315	281.0784301757813	264.1870422363282	-890.722351074219	287.0217285156251	276.0099487304688	-847.111267089844	258.6570434570313	241.9796752929688	-783.873229980469	
151	0.75	-243.1500396728516	1734.710571289063	-1045.571899414063	-419.1802368164064	1696.093994140625	-1082.09521484375	-403.8588867187501	1696.080810546875	-934.4975585937502	-443.6356201171876	1507.792846679688	-1015.196228027344	-429.1577148437501	1195.310668945313	-1008.781005859375	-287.8234558105469	1470.586791992188	-1038.019287109375	-369.9447631835938	1498.516357421875	-1182.832275390625	-280.8383178710938	1439.918090820313	-1319.666137695313	-258.9132690429688	1484.367797851563	-1315.465942382813	-220.1570892333985	1455.49462890625	-1350.221557617188	-164.5565032958985	1482.912231445313	-1373.925537109375	-124.8759765625	1427.977294921875	-1331.567626953125	104.4906845092774	1527.674560546875	-1392.925659179688	75.79187011718751	1539.666748046875	-1465.401245117188	171.9295043945313	1564.186157226563	-1424.87744140625	-339.1107788085938	1508.082641601563	-886.5650634765627	-208.1112213134766	1453.398681640625	-772.106140136719	-183.246337890625	1491.42431640625	-791.9050903320315	-139.3149871826172	1458.84912109375	-766.6296997070314	-72.95769500732423	1479.628295898438	-771.0881958007815	-55.58802795410158	1414.09228515625	-816.876159667969	191.7960662841797	1501.040405273438	-822.902282714844	181.1952667236328	1517.656860351563	-750.4703979492189	269.0419311523438	1527.769897460938	-808.783386230469	-238.2205505371094	986.2902832031252	-1102.745239257813	-238.7199249267579	1008.634460449219	-873.3677978515627	-427.5221252441407	1060.599487304688	-998.9663696289065	-427.4089965820314	1026.995727539063	-1025.536376953125	-431.1662902832032	1031.345825195313	-966.7014160156252	-305.9076538085938	819.3143310546877	-1165.816284179688	-262.0870056152344	747.4436035156251	-1163.416381835938	-214.2041015625001	757.6555175781251	-1153.698852539063	-284.0030517578126	690.7319946289064	-1155.239868164063	-285.4078063964844	519.3525390625001	-1114.926391601563	-255.2830047607422	515.6558837890626	-994.8584594726565	-264.4612731933594	337.0693664550782	-1009.900695800781	-271.7742309570313	287.3301086425782	-1083.179931640625	-257.6684265136719	286.1624145507813	-1036.945190429688	-278.1638183593751	213.0173492431641	-1005.020202636719	-332.0133361816407	117.9007034301758	-1048.133666992188	-313.0282897949219	133.5738677978516	-960.1129150390627	-189.5860290527344	63.0528030395508	-976.6086425781252	-188.8430938720703	60.46707153320314	-1021.413208007813	-236.5104064941407	46.58781051635743	-1067.41357421875	-238.1070251464844	840.6172485351565	-776.483093261719	-174.2240142822266	822.869812011719	-784.9951782226565	-151.5117340087891	843.5315551757815	-794.5230102539065	-143.853515625	745.1721191406251	-787.3107910156252	-47.78711700439454	634.0381469726564	-808.9566040039065	-36.36320114135743	629.3829345703126	-933.3252563476565	46.34545135498048	541.6044311523439	-831.9174804687502	40.5589828491211	443.1508789062501	-782.7435302734377	75.27451324462892	463.3564758300782	-806.278747558594	102.6403503417969	424.6754150390626	-840.4622192382815	127.0695266723633	267.8249816894532	-799.9949340820315	132.8094177246094	282.3010253906251	-890.2954711914065	82.21580505371095	210.3237762451172	-842.5592041015627	281.3538818359376	264.3289489746094	-890.411804199219	287.2792663574219	276.1530456542969	-846.8598632812502	258.9534301757813	242.149642944336	-783.752136230469	
